<svg width="48" height="48" viewBox="0 0 48 48" fill="none" xmlns="http://www.w3.org/2000/svg">
<g clip-path="url(#clip0_114_15)">
<rect width="48" height="48" fill="white"/>
<path d="M36.9534 40.9719C37.3473 41.2513 37.4606 41.4338 37.4913 41.5C37.4606 41.5662 37.3473 41.7487 36.9534 42.0281C36.3808 42.4343 35.4548 42.8615 34.1756 43.2452C31.6362 44.0071 28.0382 44.5 24 44.5C19.9618 44.5 16.3638 44.0071 13.8244 43.2452C12.5452 42.8615 11.6192 42.4343 11.0466 42.0281C10.6527 41.7487 10.5394 41.5662 10.5087 41.5C10.5394 41.4338 10.6527 41.2513 11.0466 40.9719C11.6192 40.5657 12.5452 40.1385 13.8244 39.7548C16.3638 38.9929 19.9618 38.5 24 38.5C28.0382 38.5 31.6362 38.9929 34.1756 39.7548C35.4548 40.1385 36.3808 40.5657 36.9534 40.9719Z" stroke="#13117D" stroke-width="3"/>
<path d="M32.5 13.037C32.5 16.1611 31.4208 22.7461 29.6368 28.5723C28.7468 31.4788 27.711 34.0954 26.6038 35.9542C26.0492 36.8853 25.5158 37.5589 25.0287 37.9843C24.5435 38.408 24.2065 38.5 24 38.5C23.7935 38.5 23.4565 38.408 22.9713 37.9843C22.4842 37.5589 21.9508 36.8853 21.3962 35.9542C20.289 34.0954 19.2532 31.4788 18.3632 28.5723C16.5792 22.7461 15.5 16.1611 15.5 13.037C15.5 6.94524 19.5539 2.5 24 2.5C28.4461 2.5 32.5 6.94524 32.5 13.037Z" fill="#FDFDFF" stroke="#13117D" stroke-width="3"/>
<circle cx="24" cy="11" r="4.5" stroke="#13117D"/>
</g>
<defs>
<clipPath id="clip0_114_15">
<rect width="48" height="48" fill="white"/>
</clipPath>
</defs>
</svg>
